<svg width="181" height="40" viewBox="0 0 181 40" fill="none" xmlns="http://www.w3.org/2000/svg">
<path fill-rule="evenodd" clip-rule="evenodd" d="M58.2117 15.5373C58.2117 18.3281 59.2156 20.3802 60.7424 22.1449C61.8944 23.4719 62.8243 24.2745 64.3325 25.3051C65.813 26.3174 65.7668 26.3995 66.5394 25.9845C68.3345 25.0223 69.8381 24.0282 71.189 22.5918C71.883 21.8531 72.5261 20.9 72.9656 19.9241C74.6682 16.1438 73.2062 11.6521 70.9947 8.34601C70.1203 7.0327 69.1302 5.66923 68.0522 4.46992C67.6544 4.02759 66.4145 2.62763 65.9703 2.37227C65.6141 2.57747 65.5817 2.74164 65.2902 3.00612L63.3286 5.05361C62.3108 6.20732 61.8805 6.74085 60.9968 8.00401C59.7477 9.79157 58.2117 12.7328 58.2117 15.5419M64.9155 15.6969C64.9155 12.7009 65.0219 11.1596 65.7991 8.27305C65.8639 8.35969 65.7991 8.22745 65.8824 8.4281L66.0629 9.11212C66.9234 12.2723 67.3629 18.8115 66.4885 22.0355C66.3867 22.4094 66.2525 22.8381 66.1508 23.1983L65.9611 22.8289C65.318 21.055 64.9155 17.521 64.9155 15.6969Z" fill="#80C342"/>
<path fill-rule="evenodd" clip-rule="evenodd" d="M72.0587 6.43075C72.9007 7.8079 73.9185 9.23065 74.52 10.8039C74.8901 11.7706 75.089 12.1537 75.3759 13.2755C76.204 16.5086 75.746 19.272 73.9093 22.0446C73.6826 22.3866 73.3356 22.8152 73.0441 23.1299C71.6885 24.5982 71.6099 24.5526 69.8564 25.8751C70.8882 25.8568 73.5669 24.8718 74.5014 24.4705C78.9198 22.569 80.317 18.1822 81.2561 13.9504C81.7697 11.6475 81.8437 9.46778 82.8708 7.23789C83.19 6.54931 83.5278 6.01122 83.9395 5.40928C85.0314 3.80868 87.1503 2.42697 89.1212 1.71559C89.5468 1.56055 89.8198 1.46935 90.2547 1.32342L91.1014 1.06349C91.2772 0.999653 91.2401 1.02245 91.3743 0.917571C90.9996 0.917571 90.8793 0.890212 90.6433 0.862852L87.8443 0.76709C84.4068 0.76709 81.506 1.25958 78.4941 2.29929C76.1115 3.12011 73.3818 4.71615 72.054 6.43531" fill="#0DA7E0"/>
<path fill-rule="evenodd" clip-rule="evenodd" d="M154.267 17.8355V25.2594C154.267 26.4815 153.564 26.559 152.768 26.559V26.9421H156.562V26.559C155.424 26.559 154.97 26.2307 154.97 25.1089V17.5254C155.623 17.9404 163.515 26.9421 163.881 26.9421H164.233V17.5254C164.233 16.6134 164.899 16.3672 165.819 16.2988V15.9933H161.938V16.2988C162.882 16.3672 163.312 16.5769 163.437 17.3704C163.594 18.3691 163.525 23.1891 163.525 24.4112C163.256 24.2562 159.888 20.5169 159.574 20.184C158.903 19.4681 158.255 18.7704 157.612 18.059L155.928 16.2258C155.794 16.0845 155.84 15.9887 155.581 15.9887H152.407C152.426 16.7001 152.676 16.0936 153.596 16.6408C153.962 16.8597 154.262 17.3339 154.262 17.8264L154.267 17.8355Z" fill="#231F20"/>
<path d="M154.267 17.8355V25.2594C154.267 26.4815 153.564 26.559 152.768 26.559V26.9421H156.562V26.559C155.424 26.559 154.97 26.2307 154.97 25.1089V17.5254C155.623 17.9404 163.515 26.9421 163.881 26.9421H164.233V17.5254C164.233 16.6134 164.899 16.3672 165.819 16.2988V15.9933H161.938V16.2988C162.882 16.3672 163.312 16.5769 163.437 17.3704C163.594 18.3691 163.525 23.1891 163.525 24.4112C163.256 24.2562 159.888 20.5169 159.574 20.184C158.903 19.4681 158.255 18.7704 157.612 18.059L155.928 16.2258C155.794 16.0845 155.84 15.9887 155.581 15.9887H152.407C152.426 16.7001 152.676 16.0936 153.596 16.6408C153.962 16.8597 154.262 17.3339 154.262 17.8264L154.267 17.8355Z" fill="#231F20"/>
<path fill-rule="evenodd" clip-rule="evenodd" d="M167.851 21.6615C167.851 26.4131 172.621 27.6626 177.404 27.12C178.82 26.9604 178.704 27.316 178.7 26.0255C178.7 25.378 178.635 24.4295 178.709 23.8139C178.815 22.9019 179.162 22.5781 180.199 22.5781V22.195H175.17V22.5781C175.942 22.5781 176.479 22.4686 176.789 23.0843C177.016 23.5357 177.34 25.8294 176.585 26.3311C175.748 26.892 173.597 26.6822 172.486 26.0529C171.108 25.2686 170.238 23.9005 169.965 22.5006C169.761 21.47 169.761 20.4348 170.034 19.4179C170.205 18.7886 170.502 18.2825 170.849 17.8265C173.18 14.7621 178.163 16.2851 178.436 19.1306H178.788V15.8382C177.525 15.8382 179.213 16.6043 176.141 15.9158C174.494 15.5464 173.143 15.6194 171.658 16.2395C169.428 17.1698 167.851 19.199 167.851 21.6615Z" fill="#231F20"/>
<path d="M167.851 21.6615C167.851 26.4131 172.621 27.6626 177.404 27.12C178.82 26.9604 178.704 27.316 178.7 26.0255C178.7 25.378 178.635 24.4295 178.709 23.8139C178.815 22.9019 179.162 22.5781 180.199 22.5781V22.195H175.17V22.5781C175.942 22.5781 176.479 22.4686 176.789 23.0843C177.016 23.5357 177.34 25.8294 176.585 26.3311C175.748 26.892 173.597 26.6822 172.486 26.0529C171.108 25.2686 170.238 23.9005 169.965 22.5006C169.761 21.47 169.761 20.4348 170.034 19.4179C170.205 18.7886 170.502 18.2825 170.849 17.8265C173.18 14.7621 178.163 16.2851 178.436 19.1306H178.788V15.8382C177.525 15.8382 179.213 16.6043 176.141 15.9158C174.494 15.5464 173.143 15.6194 171.658 16.2395C169.428 17.1698 167.851 19.199 167.851 21.6615Z" fill="#231F20"/>
<path fill-rule="evenodd" clip-rule="evenodd" d="M132.305 16.381C134.137 16.381 134.156 17.6852 134.156 19.1353C134.156 20.2617 134.294 25.1273 133.92 25.9755C133.452 27.038 132.592 26.0713 132.569 26.9468H136.45C136.427 26.0393 135.233 27.1474 134.84 25.6654C134.697 25.1228 134.775 18.4239 134.775 17.5302C135.03 17.6943 135.645 18.4239 135.9 18.6976L143.191 26.5318C143.58 26.9787 143.51 26.9468 144.033 26.9468V17.6852C144.033 16.6592 144.533 16.3856 145.62 16.3081V16.0025H141.826V16.3081C142.756 16.495 143.066 16.4768 143.242 17.3751C143.404 18.1914 143.325 23.3534 143.325 24.4205L135.733 16.2351C135.599 16.0937 135.645 15.998 135.386 15.998H132.3V16.381H132.305Z" fill="#231F20"/>
<path d="M132.305 16.381C134.137 16.381 134.156 17.6852 134.156 19.1353C134.156 20.2617 134.294 25.1273 133.92 25.9755C133.452 27.038 132.592 26.0713 132.569 26.9468H136.45C136.427 26.0393 135.233 27.1474 134.84 25.6654C134.697 25.1228 134.775 18.4239 134.775 17.5302C135.03 17.6943 135.645 18.4239 135.9 18.6976L143.191 26.5318C143.58 26.9787 143.51 26.9468 144.033 26.9468V17.6852C144.033 16.6592 144.533 16.3856 145.62 16.3081V16.0025H141.826V16.3081C142.756 16.495 143.066 16.4768 143.242 17.3751C143.404 18.1914 143.325 23.3534 143.325 24.4205L135.733 16.2351C135.599 16.0937 135.645 15.998 135.386 15.998H132.3V16.381H132.305Z" fill="#231F20"/>
<path fill-rule="evenodd" clip-rule="evenodd" d="M31.4843 16.6866C32.5253 16.6866 32.8954 17.097 32.8954 17.9862V25.6426C32.8954 26.0348 32.7705 26.4954 32.5068 26.6869C31.9192 27.1156 31.5028 26.5227 31.4843 27.2524H40.5708C40.7096 26.7279 41.0982 25.7202 41.0982 25.1866C40.2839 25.2003 40.7188 25.8022 39.8814 26.3494C39.1134 26.8511 36.6984 26.7188 35.5418 26.7188C35.1439 26.7188 34.6581 26.5729 34.6581 26.2582V22.1222H38.1002C38.586 22.1222 38.9191 22.1815 39.1273 22.4551C39.553 23.0114 39.0949 23.1163 39.8629 23.1163V20.435H39.4234C39.3725 20.9868 39.1366 21.5066 38.4518 21.5066H34.6581V16.9146C35.7824 16.9146 39.3078 16.7185 39.8444 17.2383C39.9693 17.3615 40.0758 17.5758 40.1359 17.7491C40.2608 18.123 40.0989 18.1823 40.5662 18.2142C40.5662 17.8585 40.5662 17.4983 40.5662 17.1426C40.5662 16.7778 40.6957 16.299 40.3025 16.299H31.748C31.4612 16.299 31.4843 16.4358 31.4843 16.682V16.6866Z" fill="#231F20"/>
<path d="M31.4843 16.6866C32.5253 16.6866 32.8954 17.097 32.8954 17.9862V25.6426C32.8954 26.0348 32.7705 26.4954 32.5068 26.6869C31.9192 27.1156 31.5028 26.5227 31.4843 27.2524H40.5708C40.7096 26.7279 41.0982 25.7202 41.0982 25.1866C40.2839 25.2003 40.7188 25.8022 39.8814 26.3494C39.1134 26.8511 36.6984 26.7188 35.5418 26.7188C35.1439 26.7188 34.6581 26.5729 34.6581 26.2582V22.1222H38.1002C38.586 22.1222 38.9191 22.1815 39.1273 22.4551C39.553 23.0114 39.0949 23.1163 39.8629 23.1163V20.435H39.4234C39.3725 20.9868 39.1366 21.5066 38.4518 21.5066H34.6581V16.9146C35.7824 16.9146 39.3078 16.7185 39.8444 17.2383C39.9693 17.3615 40.0758 17.5758 40.1359 17.7491C40.2608 18.123 40.0989 18.1823 40.5662 18.2142C40.5662 17.8585 40.5662 17.4983 40.5662 17.1426C40.5662 16.7778 40.6957 16.299 40.3025 16.299H31.748C31.4612 16.299 31.4843 16.4358 31.4843 16.682V16.6866Z" fill="#231F20"/>
<path fill-rule="evenodd" clip-rule="evenodd" d="M108.576 16.3035C109.589 16.5087 109.987 16.4859 109.987 18.2917V24.6439C109.987 26.1305 109.742 26.5592 108.576 26.5592V26.9422H117.398C117.889 26.9422 117.732 25.7064 118.194 24.8765C117.579 24.8765 117.713 24.9312 117.486 25.3371C116.723 26.7051 115.053 26.4087 112.726 26.4087C112.133 26.4087 111.666 26.3175 111.666 25.7976V21.7391C112.494 21.7391 115.057 21.689 115.765 21.8577C116.2 21.9626 116.39 22.4049 116.431 22.8108H116.871V20.1294H116.431C116.413 20.9001 116.024 21.201 115.108 21.201H111.671V16.5315H115.201C116.695 16.5315 117.028 16.7641 117.32 17.8311H117.583V15.9934H108.585V16.2989L108.576 16.3035Z" fill="#231F20"/>
<path d="M108.576 16.3035C109.589 16.5087 109.987 16.4859 109.987 18.2917V24.6439C109.987 26.1305 109.742 26.5592 108.576 26.5592V26.9422H117.398C117.889 26.9422 117.732 25.7064 118.194 24.8765C117.579 24.8765 117.713 24.9312 117.486 25.3371C116.723 26.7051 115.053 26.4087 112.726 26.4087C112.133 26.4087 111.666 26.3175 111.666 25.7976V21.7391C112.494 21.7391 115.057 21.689 115.765 21.8577C116.2 21.9626 116.39 22.4049 116.431 22.8108H116.871V20.1294H116.431C116.413 20.9001 116.024 21.201 115.108 21.201H111.671V16.5315H115.201C116.695 16.5315 117.028 16.7641 117.32 17.8311H117.583V15.9934H108.585V16.2989L108.576 16.3035Z" fill="#231F20"/>
<path fill-rule="evenodd" clip-rule="evenodd" d="M119.337 26.9468H122.687C122.668 26.1716 122.034 26.8829 121.715 26.1761C121.488 25.67 122.173 24.2609 122.391 23.7045C122.543 23.3124 122.687 22.829 122.863 22.5098H126.832C127.031 23.2485 127.35 23.9782 127.614 24.6622C128.09 25.898 128.488 26.5683 127.008 26.5683V26.9513H131.417C131.394 26.1396 130.621 26.9194 130.094 26.1852C129.844 25.8387 129.599 25.2367 129.423 24.7762L127.151 18.8617C126.952 18.3464 126.069 16.1758 126.036 15.8475H124.713C124.024 17.0969 121.401 25.1182 120.609 26.0621C119.957 26.8419 119.356 26.1761 119.333 26.9468H119.337ZM124.718 17.3797C125.037 17.5849 125.902 20.1933 126.073 20.6447C126.198 20.9776 126.448 21.4975 126.48 21.8212H123.126C123.173 21.347 124.667 17.8676 124.713 17.3797H124.718Z" fill="#231F20"/>
<path d="M119.337 26.9468H122.687C122.668 26.1716 122.034 26.8829 121.715 26.1761C121.488 25.67 122.173 24.2609 122.391 23.7045C122.543 23.3124 122.687 22.829 122.863 22.5098H126.832C127.031 23.2485 127.35 23.9782 127.614 24.6622C128.09 25.898 128.488 26.5683 127.008 26.5683V26.9513H131.417C131.394 26.1396 130.621 26.9194 130.094 26.1852C129.844 25.8387 129.599 25.2367 129.423 24.7762L127.151 18.8617C126.952 18.3464 126.069 16.1758 126.036 15.8475H124.713C124.024 17.0969 121.401 25.1182 120.609 26.0621C119.957 26.8419 119.356 26.1761 119.333 26.9468H119.337ZM124.718 17.3797C125.037 17.5849 125.902 20.1933 126.073 20.6447C126.198 20.9776 126.448 21.4975 126.48 21.8212H123.126C123.173 21.347 124.667 17.8676 124.713 17.3797H124.718Z" fill="#231F20"/>
<path fill-rule="evenodd" clip-rule="evenodd" d="M0.0842173 27.2523H3.3459V26.8693C1.33337 26.8693 2.98504 24.8902 3.52171 22.8883H7.57916C8.05569 24.6576 9.45289 26.5866 8.24537 26.8328C7.76422 26.9331 7.68094 26.7416 7.66706 27.2523H12.164C12.1409 26.4315 11.4886 27.266 10.8362 26.4908C10.517 26.1123 10.3689 25.6016 10.17 25.0772C9.85077 24.2472 6.82966 16.682 6.7834 16.226H5.37231C5.33993 16.5817 2.28181 24.4342 2.03198 25.0407C0.86147 27.8634 0.107349 26.2035 0.0795898 27.2523H0.0842173ZM5.51573 17.6716L7.24605 22.1177H3.79467L5.52036 17.6716H5.51573Z" fill="#231F20"/>
<path d="M0.0842173 27.2523H3.3459V26.8693C1.33337 26.8693 2.98504 24.8902 3.52171 22.8883H7.57916C8.05569 24.6576 9.45289 26.5866 8.24537 26.8328C7.76422 26.9331 7.68094 26.7416 7.66706 27.2523H12.164C12.1409 26.4315 11.4886 27.266 10.8362 26.4908C10.517 26.1123 10.3689 25.6016 10.17 25.0772C9.85077 24.2472 6.82966 16.682 6.7834 16.226H5.37231C5.33993 16.5817 2.28181 24.4342 2.03198 25.0407C0.86147 27.8634 0.107349 26.2035 0.0795898 27.2523H0.0842173ZM5.51573 17.6716L7.24605 22.1177H3.79467L5.52036 17.6716H5.51573Z" fill="#231F20"/>
<path fill-rule="evenodd" clip-rule="evenodd" d="M84.8511 21.356C84.8511 22.4687 84.8557 23.2074 85.4109 24.2426C86.0632 25.4601 87.044 26.2399 88.469 26.7917C91.7631 28.0685 95.6725 26.4314 96.2323 24.3429L95.8945 24.1012C94.886 25.7428 93.6461 26.4861 91.2958 26.4861C89.6811 26.4861 88.5662 25.6288 87.9092 24.7579C85.7949 21.958 86.475 16.1529 91.3883 16.1529C93.5813 16.1529 94.7425 17.1334 95.2977 18.7294C95.4273 19.1033 95.3579 19.1352 95.8853 19.1352V15.8428C94.539 15.8428 96.3479 16.4539 93.1742 15.9021C90.5879 15.4507 88.6633 15.738 86.7803 17.3568C85.8088 18.1913 84.8603 19.7098 84.8603 21.356H84.8511Z" fill="#231F20"/>
<path d="M84.8511 21.356C84.8511 22.4687 84.8557 23.2074 85.4109 24.2426C86.0632 25.4601 87.044 26.2399 88.469 26.7917C91.7631 28.0685 95.6725 26.4314 96.2323 24.3429L95.8945 24.1012C94.886 25.7428 93.6461 26.4861 91.2958 26.4861C89.6811 26.4861 88.5662 25.6288 87.9092 24.7579C85.7949 21.958 86.475 16.1529 91.3883 16.1529C93.5813 16.1529 94.7425 17.1334 95.2977 18.7294C95.4273 19.1033 95.3579 19.1352 95.8853 19.1352V15.8428C94.539 15.8428 96.3479 16.4539 93.1742 15.9021C90.5879 15.4507 88.6633 15.738 86.7803 17.3568C85.8088 18.1913 84.8603 19.7098 84.8603 21.356H84.8511Z" fill="#231F20"/>
<path fill-rule="evenodd" clip-rule="evenodd" d="M42.4214 18.4467H42.8609C42.9072 16.5999 45.3037 16.9145 47.1821 16.9145V25.182C47.1821 26.5501 46.8119 26.8647 45.771 26.8647V27.2477H50.18V26.8647C49.2593 26.8647 48.8568 26.6641 48.8568 25.41V16.9145C51.221 16.9145 52.8634 16.609 53.3538 18.4467H53.6175V15.9204C52.8449 15.9204 52.9421 16.3035 51.8548 16.3035C50.453 16.3035 44.2535 16.4312 43.3513 16.1804C42.7591 16.0162 43.0645 15.9204 42.4167 15.9204V18.4467H42.4214Z" fill="#231F20"/>
<path d="M42.4214 18.4467H42.8609C42.9072 16.5999 45.3037 16.9145 47.1821 16.9145V25.182C47.1821 26.5501 46.8119 26.8647 45.771 26.8647V27.2477H50.18V26.8647C49.2593 26.8647 48.8568 26.6641 48.8568 25.41V16.9145C51.221 16.9145 52.8634 16.609 53.3538 18.4467H53.6175V15.9204C52.8449 15.9204 52.9421 16.3035 51.8548 16.3035C50.453 16.3035 44.2535 16.4312 43.3513 16.1804C42.7591 16.0162 43.0645 15.9204 42.4167 15.9204V18.4467H42.4214Z" fill="#231F20"/>
<path fill-rule="evenodd" clip-rule="evenodd" d="M13.8435 18.6793C13.8435 19.8193 13.9823 20.2434 14.7226 21.0551C15.0279 21.388 16.1244 22.0356 16.5824 22.2727C17.7807 22.8929 19.6637 23.8596 19.6637 25.1866C19.6637 27.8771 14.1951 27.8132 14.1951 24.4205H13.7556V27.4074C14.63 27.4074 13.9407 27.1885 14.5144 26.997C14.7226 26.9286 15.2361 27.1064 15.4443 27.1657C17.1376 27.6627 18.5764 27.8588 19.9551 26.6595C20.2744 26.3813 20.5334 26.167 20.7278 25.7976C21.0146 25.2596 21.0794 24.8765 21.0794 24.2655C21.0794 21.1646 14.9909 20.7222 14.9909 18.1412C14.9909 15.8384 19.932 15.9615 19.932 18.7523H20.3715V16.1485C19.9829 16.1576 19.9644 16.1257 19.932 16.454C18.8355 16.454 18.632 16.0709 17.1098 16.0709C15.3795 16.0709 13.8481 17.1973 13.8481 18.6748L13.8435 18.6793Z" fill="#231F20"/>
<path d="M13.8435 18.6793C13.8435 19.8193 13.9823 20.2434 14.7226 21.0551C15.0279 21.388 16.1244 22.0356 16.5824 22.2727C17.7807 22.8929 19.6637 23.8596 19.6637 25.1866C19.6637 27.8771 14.1951 27.8132 14.1951 24.4205H13.7556V27.4074C14.63 27.4074 13.9407 27.1885 14.5144 26.997C14.7226 26.9286 15.2361 27.1064 15.4443 27.1657C17.1376 27.6627 18.5764 27.8588 19.9551 26.6595C20.2744 26.3813 20.5334 26.167 20.7278 25.7976C21.0146 25.2596 21.0794 24.8765 21.0794 24.2655C21.0794 21.1646 14.9909 20.7222 14.9909 18.1412C14.9909 15.8384 19.932 15.9615 19.932 18.7523H20.3715V16.1485C19.9829 16.1576 19.9644 16.1257 19.932 16.454C18.8355 16.454 18.632 16.0709 17.1098 16.0709C15.3795 16.0709 13.8481 17.1973 13.8481 18.6748L13.8435 18.6793Z" fill="#231F20"/>
<path fill-rule="evenodd" clip-rule="evenodd" d="M22.9297 18.6792C22.9297 20.6583 23.9151 21.3058 25.6825 22.2635C26.3487 22.6237 26.9363 22.9748 27.5562 23.3944C30.7763 25.5695 26.8992 28.5518 24.1418 26.3584C23.5728 25.907 23.2813 25.1546 23.2813 24.4249H22.8418V27.4118C23.9383 27.4118 22.6984 26.632 24.5305 27.1701C25.0486 27.3206 25.8999 27.5623 26.5476 27.5623C28.5602 27.5623 30.1656 26.2216 30.1656 24.2699C30.1656 22.6875 28.4538 21.7573 27.2925 21.1006C26.5939 20.7039 25.9786 20.3938 25.3262 19.9743C22.5596 18.1822 24.8543 15.7425 27.5516 16.7412C27.8107 16.8369 28.1993 17.0832 28.3705 17.2565C29.3837 18.3007 28.5879 18.7385 29.4623 18.7567V16.1529H29.1107L29.0136 16.4539C27.9263 16.4539 27.695 16.0754 26.2006 16.0754C24.475 16.0754 22.939 17.2108 22.939 18.6792H22.9297Z" fill="#231F20"/>
<path d="M22.9297 18.6792C22.9297 20.6583 23.9151 21.3058 25.6825 22.2635C26.3487 22.6237 26.9363 22.9748 27.5562 23.3944C30.7763 25.5695 26.8992 28.5518 24.1418 26.3584C23.5728 25.907 23.2813 25.1546 23.2813 24.4249H22.8418V27.4118C23.9383 27.4118 22.6984 26.632 24.5305 27.1701C25.0486 27.3206 25.8999 27.5623 26.5476 27.5623C28.5602 27.5623 30.1656 26.2216 30.1656 24.2699C30.1656 22.6875 28.4538 21.7573 27.2925 21.1006C26.5939 20.7039 25.9786 20.3938 25.3262 19.9743C22.5596 18.1822 24.8543 15.7425 27.5516 16.7412C27.8107 16.8369 28.1993 17.0832 28.3705 17.2565C29.3837 18.3007 28.5879 18.7385 29.4623 18.7567V16.1529H29.1107L29.0136 16.4539C27.9263 16.4539 27.695 16.0754 26.2006 16.0754C24.475 16.0754 22.939 17.2108 22.939 18.6792H22.9297Z" fill="#231F20"/>
<path fill-rule="evenodd" clip-rule="evenodd" d="M97.8144 16.3034C98.1707 16.3763 98.5824 16.3763 98.8369 16.5633C99.0543 16.7229 99.2255 17.1242 99.2255 17.4525V25.1865C99.2255 25.5878 99.0682 26.0848 98.8369 26.3037C98.2863 26.8327 97.8329 26.2079 97.8098 26.9467H106.984C106.993 26.6001 107.303 25.7839 107.405 25.4738C107.47 25.2777 107.632 24.9083 107.646 24.7487C107.687 24.3383 107.359 24.4158 107.188 24.7487C107.058 25.0041 107.03 25.1728 106.896 25.419C106.175 26.705 104.81 26.4131 102.483 26.4131C101.742 26.4131 100.984 26.2809 100.984 25.6471V17.6851C100.984 17.3112 101.118 16.8825 101.317 16.6728C101.571 16.4128 101.974 16.39 102.395 16.3079V16.0024H97.8052V16.3079L97.8144 16.3034Z" fill="#231F20"/>
<path d="M97.8144 16.3034C98.1707 16.3763 98.5824 16.3763 98.8369 16.5633C99.0543 16.7229 99.2255 17.1242 99.2255 17.4525V25.1865C99.2255 25.5878 99.0682 26.0848 98.8369 26.3037C98.2863 26.8327 97.8329 26.2079 97.8098 26.9467H106.984C106.993 26.6001 107.303 25.7839 107.405 25.4738C107.47 25.2777 107.632 24.9083 107.646 24.7487C107.687 24.3383 107.359 24.4158 107.188 24.7487C107.058 25.0041 107.03 25.1728 106.896 25.419C106.175 26.705 104.81 26.4131 102.483 26.4131C101.742 26.4131 100.984 26.2809 100.984 25.6471V17.6851C100.984 17.3112 101.118 16.8825 101.317 16.6728C101.571 16.4128 101.974 16.39 102.395 16.3079V16.0024H97.8052V16.3079L97.8144 16.3034Z" fill="#231F20"/>
<path fill-rule="evenodd" clip-rule="evenodd" d="M146.948 16.3035C147.355 16.3856 147.813 16.3765 148.058 16.6409C148.266 16.8598 148.359 17.3751 148.359 17.7582V25.2596C148.359 25.6928 148.234 26.1397 147.947 26.3585C147.364 26.7963 146.966 26.2309 146.948 26.9468H151.533C151.514 26.2537 151.162 26.769 150.58 26.395C150.311 26.2217 150.122 25.8022 150.122 25.4146V17.5302C150.122 16.3673 151.088 16.3947 151.533 16.3035V15.998H146.948V16.3035Z" fill="#231F20"/>
<path d="M146.948 16.3035C147.355 16.3856 147.813 16.3765 148.058 16.6409C148.266 16.8598 148.359 17.3751 148.359 17.7582V25.2596C148.359 25.6928 148.234 26.1397 147.947 26.3585C147.364 26.7963 146.966 26.2309 146.948 26.9468H151.533C151.514 26.2537 151.162 26.769 150.58 26.395C150.311 26.2217 150.122 25.8022 150.122 25.4146V17.5302C150.122 16.3673 151.088 16.3947 151.533 16.3035V15.998H146.948V16.3035Z" fill="#231F20"/>
<path fill-rule="evenodd" clip-rule="evenodd" d="M25.4423 34.9133C25.4423 35.4559 25.9142 35.9256 26.1733 36.2631C25.5533 36.409 24.7992 37.28 24.7992 37.7724C24.7992 38.1965 24.7576 38.4473 25.0259 38.8486C25.1046 38.9626 25.1277 38.9763 25.2249 39.0766C25.8541 39.7105 26.8626 39.8427 27.737 39.4506C28.1025 39.2864 28.1396 39.1222 28.4634 39.0493C28.5282 39.2545 28.6253 39.3366 28.7364 39.5281H29.7449C29.088 38.4473 28.7965 38.8258 29.1111 38.1099C29.2314 37.8409 29.3378 37.508 29.4165 37.1568C29.5321 36.6324 29.3008 36.7464 28.6485 36.7464C28.5837 36.9881 28.4727 37.508 28.4634 37.7816C28.1673 37.6083 27.3716 36.5823 27.1819 36.2722C28.7086 35.5699 28.7595 33.7094 26.8256 33.755C26.1131 33.7732 25.4423 34.2429 25.4423 34.9178V34.9133ZM27.3669 34.5165C27.5057 35.0409 27.4317 35.6246 26.7238 35.7888C26.6221 35.4514 26.2103 35.2005 26.2982 34.781C26.4092 34.2657 26.9876 34.3569 27.3623 34.5165H27.3669ZM25.7199 38.0962C25.7199 37.4487 26.0715 36.8741 26.6359 36.7464C26.7932 37.2572 27.7741 38.0369 27.9175 38.575C27.5057 38.8122 27.3716 38.9718 26.7285 38.9718C26.1918 38.9718 25.7199 38.5613 25.7199 38.0962Z" fill="#231F20"/>
<path d="M25.4423 34.9133C25.4423 35.4559 25.9142 35.9256 26.1733 36.2631C25.5533 36.409 24.7992 37.28 24.7992 37.7724C24.7992 38.1965 24.7576 38.4473 25.0259 38.8486C25.1046 38.9626 25.1277 38.9763 25.2249 39.0766C25.8541 39.7105 26.8626 39.8427 27.737 39.4506C28.1025 39.2864 28.1396 39.1222 28.4634 39.0493C28.5282 39.2545 28.6253 39.3366 28.7364 39.5281H29.7449C29.088 38.4473 28.7965 38.8258 29.1111 38.1099C29.2314 37.8409 29.3378 37.508 29.4165 37.1568C29.5321 36.6324 29.3008 36.7464 28.6485 36.7464C28.5837 36.9881 28.4727 37.508 28.4634 37.7816C28.1673 37.6083 27.3716 36.5823 27.1819 36.2722C28.7086 35.5699 28.7595 33.7094 26.8256 33.755C26.1131 33.7732 25.4423 34.2429 25.4423 34.9178V34.9133ZM27.3669 34.5165C27.5057 35.0409 27.4317 35.6246 26.7238 35.7888C26.6221 35.4514 26.2103 35.2005 26.2982 34.781C26.4092 34.2657 26.9876 34.3569 27.3623 34.5165H27.3669ZM25.7199 38.0962C25.7199 37.4487 26.0715 36.8741 26.6359 36.7464C26.7932 37.2572 27.7741 38.0369 27.9175 38.575C27.5057 38.8122 27.3716 38.9718 26.7285 38.9718C26.1918 38.9718 25.7199 38.5613 25.7199 38.0962Z" fill="#231F20"/>
<path fill-rule="evenodd" clip-rule="evenodd" d="M71.4341 39.5281H72.3501V36.9835C73.9324 36.9835 74.2007 36.9516 74.2794 37.8545C74.3534 38.7346 74.3349 38.7255 74.5523 39.5281H75.6535C74.8947 38.5431 75.7784 37.0291 74.5523 36.7464C74.7189 36.5275 75.3759 36.1445 75.3759 35.3145C75.3759 33.4266 73.1459 33.7231 71.4387 33.7231V39.5281H71.4341ZM73.2662 36.3497H72.3501V34.4435C73.5067 34.4435 74.3673 34.2931 74.3673 35.3966C74.3673 36.0305 73.9972 36.3497 73.2662 36.3497Z" fill="#231F20"/>
<path d="M71.4341 39.5281H72.3501V36.9835C73.9324 36.9835 74.2007 36.9516 74.2794 37.8545C74.3534 38.7346 74.3349 38.7255 74.5523 39.5281H75.6535C74.8947 38.5431 75.7784 37.0291 74.5523 36.7464C74.7189 36.5275 75.3759 36.1445 75.3759 35.3145C75.3759 33.4266 73.1459 33.7231 71.4387 33.7231V39.5281H71.4341ZM73.2662 36.3497H72.3501V34.4435C73.5067 34.4435 74.3673 34.2931 74.3673 35.3966C74.3673 36.0305 73.9972 36.3497 73.2662 36.3497Z" fill="#231F20"/>
<path fill-rule="evenodd" clip-rule="evenodd" d="M43.6753 33.9602V39.5281H44.5913V37.2207C44.5913 36.9289 44.7857 36.9836 45.2344 36.9836C47.4135 36.9836 46.1227 38.2787 46.8815 39.5281H47.89C47.5384 38.949 47.5939 38.7712 47.5292 38.0096C47.4089 36.6097 47.2979 37.1569 46.8815 36.6644C47.1683 36.2905 47.6125 36.2585 47.6125 35.155C47.6125 33.5134 45.4241 33.7231 43.9483 33.7231C43.7354 33.7231 43.6753 33.7778 43.6753 33.9602ZM45.5074 36.3452H44.5913V34.4391C46.2199 34.4391 46.6085 34.3387 46.6085 35.5517C46.6085 36.0898 46.1412 36.3452 45.5074 36.3452Z" fill="#231F20"/>
<path d="M43.6753 33.9602V39.5281H44.5913V37.2207C44.5913 36.9289 44.7857 36.9836 45.2344 36.9836C47.4135 36.9836 46.1227 38.2787 46.8815 39.5281H47.89C47.5384 38.949 47.5939 38.7712 47.5292 38.0096C47.4089 36.6097 47.2979 37.1569 46.8815 36.6644C47.1683 36.2905 47.6125 36.2585 47.6125 35.155C47.6125 33.5134 45.4241 33.7231 43.9483 33.7231C43.7354 33.7231 43.6753 33.7778 43.6753 33.9602ZM45.5074 36.3452H44.5913V34.4391C46.2199 34.4391 46.6085 34.3387 46.6085 35.5517C46.6085 36.0898 46.1412 36.3452 45.5074 36.3452Z" fill="#231F20"/>
<path fill-rule="evenodd" clip-rule="evenodd" d="M109.362 39.5281H110.278V37.2207C110.278 36.7692 111.648 37.0018 111.884 37.0975C112.374 37.2982 112.161 38.3425 112.476 39.5235H113.577C113.378 39.2682 113.364 39.2682 113.304 38.8851C113.124 37.7542 113.392 36.9516 112.481 36.7373V36.5777C113.443 36.3542 114.257 33.7139 111.014 33.7139H109.367V39.519L109.362 39.5281ZM111.194 36.3497H110.278V34.4436C111.713 34.4436 112.296 34.3159 112.296 35.5562C112.296 36.0943 111.828 36.3497 111.199 36.3497H111.194Z" fill="#231F20"/>
<path d="M109.362 39.5281H110.278V37.2207C110.278 36.7692 111.648 37.0018 111.884 37.0975C112.374 37.2982 112.161 38.3425 112.476 39.5235H113.577C113.378 39.2682 113.364 39.2682 113.304 38.8851C113.124 37.7542 113.392 36.9516 112.481 36.7373V36.5777C113.443 36.3542 114.257 33.7139 111.014 33.7139H109.367V39.519L109.362 39.5281ZM111.194 36.3497H110.278V34.4436C111.713 34.4436 112.296 34.3159 112.296 35.5562C112.296 36.0943 111.828 36.3497 111.199 36.3497H111.194Z" fill="#231F20"/>
<path fill-rule="evenodd" clip-rule="evenodd" d="M52.9607 39.6831H52.623C51.6144 39.6011 50.6382 38.7666 50.6382 36.6598C50.6382 36.0077 50.8094 35.009 51.0777 34.5758C51.9012 33.2579 53.8814 33.3537 54.6077 34.5621C55.1583 35.4787 55.1814 37.7041 54.58 38.7301C54.27 39.259 53.6315 39.6284 52.9607 39.6786V39.6831ZM51.6468 37.1386C51.6468 36.4728 51.6051 35.6657 51.8133 35.0592C52.1881 33.983 54.0294 33.9237 54.0294 36.0259C54.0294 37.3256 54.2839 38.9672 52.7479 38.9672C51.7902 38.9672 51.6468 37.8044 51.6468 37.1386Z" fill="#231F20"/>
<path fill-rule="evenodd" clip-rule="evenodd" d="M95.8019 35.0728C95.8019 35.9392 95.8991 36.4226 97.1205 36.7919C97.4397 36.8877 97.9301 37.0291 98.1846 37.1431C99.4245 37.6857 98.6842 38.9717 98.0041 38.9717C96.6625 38.9717 96.6301 38.6661 96.6301 37.6219H95.714C95.714 38.3105 95.6493 38.7619 96.2831 39.2772C97.1482 39.984 99.8362 39.9156 99.8362 37.859C99.8362 35.8024 96.7226 36.7418 96.7226 35.1549C96.7226 34.2884 97.6109 34.3614 98.0967 34.3614C98.5223 34.3614 98.7027 34.9497 98.7398 35.3145H99.6558C99.6558 32.9113 95.8066 33.3126 95.8066 35.0773L95.8019 35.0728Z" fill="#231F20"/>
<path d="M95.8019 35.0728C95.8019 35.9392 95.8991 36.4226 97.1205 36.7919C97.4397 36.8877 97.9301 37.0291 98.1846 37.1431C99.4245 37.6857 98.6842 38.9717 98.0041 38.9717C96.6625 38.9717 96.6301 38.6661 96.6301 37.6219H95.714C95.714 38.3105 95.6493 38.7619 96.2831 39.2772C97.1482 39.984 99.8362 39.9156 99.8362 37.859C99.8362 35.8024 96.7226 36.7418 96.7226 35.1549C96.7226 34.2884 97.6109 34.3614 98.0967 34.3614C98.5223 34.3614 98.7027 34.9497 98.7398 35.3145H99.6558C99.6558 32.9113 95.8066 33.3126 95.8066 35.0773L95.8019 35.0728Z" fill="#231F20"/>
<path fill-rule="evenodd" clip-rule="evenodd" d="M140.6 35.1548C140.6 36.1033 140.966 36.4818 141.984 36.8147C142.409 36.9515 142.715 37.0017 143.103 37.1932C144.042 37.6538 143.927 38.9717 142.52 38.9717C141.577 38.9717 141.419 38.4336 141.419 37.6219H140.503C140.503 40.4081 143.404 39.683 143.918 39.3137C144.834 38.657 145.134 37.0336 143.344 36.4271C142.964 36.2994 142.146 36.1079 141.863 35.8799C141.378 35.4832 141.516 34.3614 142.243 34.3614C143.168 34.3614 143.524 34.3477 143.524 35.3144H144.44C144.44 34.2428 143.894 33.6454 142.516 33.6454C141.447 33.6454 140.591 34.2519 140.591 35.1548H140.6Z" fill="#231F20"/>
<path d="M140.6 35.1548C140.6 36.1033 140.966 36.4818 141.984 36.8147C142.409 36.9515 142.715 37.0017 143.103 37.1932C144.042 37.6538 143.927 38.9717 142.52 38.9717C141.577 38.9717 141.419 38.4336 141.419 37.6219H140.503C140.503 40.4081 143.404 39.683 143.918 39.3137C144.834 38.657 145.134 37.0336 143.344 36.4271C142.964 36.2994 142.146 36.1079 141.863 35.8799C141.378 35.4832 141.516 34.3614 142.243 34.3614C143.168 34.3614 143.524 34.3477 143.524 35.3144H144.44C144.44 34.2428 143.894 33.6454 142.516 33.6454C141.447 33.6454 140.591 34.2519 140.591 35.1548H140.6Z" fill="#231F20"/>
<path fill-rule="evenodd" clip-rule="evenodd" d="M64.8367 33.9601V39.528H68.5009V38.8121H65.8452V36.906H68.2279V36.19H65.8452V34.521H68.4083C68.4083 33.4631 68.8895 33.7276 65.1096 33.7276C64.8968 33.7276 64.8367 33.7823 64.8367 33.9647V33.9601Z" fill="#231F20"/>
<path d="M64.8367 33.9601V39.528H68.5009V38.8121H65.8452V36.906H68.2279V36.19H65.8452V34.521H68.4083C68.4083 33.4631 68.8895 33.7276 65.1096 33.7276C64.8968 33.7276 64.8367 33.7823 64.8367 33.9647V33.9601Z" fill="#231F20"/>
<path fill-rule="evenodd" clip-rule="evenodd" d="M134.188 33.9601V39.528H137.852V38.8121H135.104V36.906H137.579V36.19H135.382C134.928 36.19 135.109 35.5607 135.109 34.521H137.491C137.898 34.521 137.898 33.7276 137.491 33.7276H134.47C134.257 33.7276 134.197 33.7823 134.197 33.9647L134.188 33.9601Z" fill="#231F20"/>
<path d="M134.188 33.9601V39.528H137.852V38.8121H135.104V36.906H137.579V36.19H135.382C134.928 36.19 135.109 35.5607 135.109 34.521H137.491C137.898 34.521 137.898 33.7276 137.491 33.7276H134.47C134.257 33.7276 134.197 33.7823 134.197 33.9647L134.188 33.9601Z" fill="#231F20"/>
<path fill-rule="evenodd" clip-rule="evenodd" d="M102.857 39.5281H106.429V38.8122H103.773V36.9015H106.156V36.1856H103.773V34.5166H106.337V33.7231H102.857V39.5281Z" fill="#231F20"/>
<path d="M102.857 39.5281H106.429V38.8122H103.773V36.9015H106.156V36.1856H103.773V34.5166H106.337V33.7231H102.857V39.5281Z" fill="#231F20"/>
<path fill-rule="evenodd" clip-rule="evenodd" d="M127.045 36.6642C127.045 37.7313 127.17 38.8212 128.114 39.3957C129.168 40.0342 131.26 39.7104 131.26 37.4623H130.344C130.288 39.6374 128.053 39.3638 128.053 37.4623C128.053 36.5548 127.822 34.3614 129.062 34.3614C129.539 34.3614 129.812 34.293 130.075 34.7535C130.205 34.977 130.251 35.1913 130.251 35.5516H131.26C131.153 34.4617 130.695 33.6454 129.243 33.6454C127.457 33.6454 127.045 35.1092 127.045 36.6688V36.6642Z" fill="#231F20"/>
<path d="M127.045 36.6642C127.045 37.7313 127.17 38.8212 128.114 39.3957C129.168 40.0342 131.26 39.7104 131.26 37.4623H130.344C130.288 39.6374 128.053 39.3638 128.053 37.4623C128.053 36.5548 127.822 34.3614 129.062 34.3614C129.539 34.3614 129.812 34.293 130.075 34.7535C130.205 34.977 130.251 35.1913 130.251 35.5516H131.26C131.153 34.4617 130.695 33.6454 129.243 33.6454C127.457 33.6454 127.045 35.1092 127.045 36.6688V36.6642Z" fill="#231F20"/>
<path fill-rule="evenodd" clip-rule="evenodd" d="M58.1514 39.528H59.0674V37.1431C59.9557 37.1431 60.844 37.248 61.4593 36.6779C61.4732 36.6643 61.4917 36.6506 61.501 36.6369C62.1302 36.0076 62.8473 33.7276 59.3404 33.7276H58.1514V39.5326V39.528ZM60.1685 36.4271H59.0674V34.4389C60.349 34.4389 60.992 34.2976 60.992 35.5516C60.992 36.0487 60.7283 36.4271 60.1685 36.4271Z" fill="#231F20"/>
<path d="M58.1514 39.528H59.0674V37.1431C59.9557 37.1431 60.844 37.248 61.4593 36.6779C61.4732 36.6643 61.4917 36.6506 61.501 36.6369C62.1302 36.0076 62.8473 33.7276 59.3404 33.7276H58.1514V39.5326V39.528ZM60.1685 36.4271H59.0674V34.4389C60.349 34.4389 60.992 34.2976 60.992 35.5516C60.992 36.0487 60.7283 36.4271 60.1685 36.4271Z" fill="#231F20"/>
<path fill-rule="evenodd" clip-rule="evenodd" d="M36.9854 39.528H37.9014V37.143C38.9377 37.143 39.7798 37.2707 40.409 36.5365C40.7236 36.1717 40.8809 35.62 40.7745 35.1366C40.409 33.5086 38.947 33.7275 36.9854 33.7275V39.5325V39.528ZM39.0904 36.4271H37.9014V34.4389C39.1182 34.4389 39.826 34.3294 39.826 35.474C39.826 35.7476 39.7613 35.93 39.6317 36.0988C39.5346 36.2265 39.3079 36.4271 39.095 36.4271H39.0904Z" fill="#231F20"/>
<path d="M36.9854 39.528H37.9014V37.143C38.9377 37.143 39.7798 37.2707 40.409 36.5365C40.7236 36.1717 40.8809 35.62 40.7745 35.1366C40.409 33.5086 38.947 33.7275 36.9854 33.7275V39.5325V39.528ZM39.0904 36.4271H37.9014V34.4389C39.1182 34.4389 39.826 34.3294 39.826 35.474C39.826 35.7476 39.7613 35.93 39.6317 36.0988C39.5346 36.2265 39.3079 36.4271 39.095 36.4271H39.0904Z" fill="#231F20"/>
<path fill-rule="evenodd" clip-rule="evenodd" d="M117.514 39.5281H118.615C118.87 38.5751 119.166 37.6174 119.439 36.6644C119.578 36.1764 119.74 35.6611 119.878 35.2188C119.994 34.8449 120.253 34.097 120.262 33.7231H119.346L118.43 37.1432C118.347 37.4487 118.162 38.0142 118.157 38.3379C117.912 38.1829 117.968 38.1373 117.903 37.8454L116.783 33.7277H115.867C115.904 34.1198 116.136 34.7309 116.251 35.1413C116.381 35.5927 116.543 36.1491 116.672 36.6051C116.82 37.1249 116.927 37.5718 117.075 38.0826C117.167 38.4063 117.366 39.2636 117.514 39.5281Z" fill="#231F20"/>
<path d="M117.514 39.5281H118.615C118.87 38.5751 119.166 37.6174 119.439 36.6644C119.578 36.1764 119.74 35.6611 119.878 35.2188C119.994 34.8449 120.253 34.097 120.262 33.7231H119.346L118.43 37.1432C118.347 37.4487 118.162 38.0142 118.157 38.3379C117.912 38.1829 117.968 38.1373 117.903 37.8454L116.783 33.7277H115.867C115.904 34.1198 116.136 34.7309 116.251 35.1413C116.381 35.5927 116.543 36.1491 116.672 36.6051C116.82 37.1249 116.927 37.5718 117.075 38.0826C117.167 38.4063 117.366 39.2636 117.514 39.5281Z" fill="#231F20"/>
<path fill-rule="evenodd" clip-rule="evenodd" d="M86.0909 37.4578V39.5235H87.0069C87.0069 36.7191 86.7663 37.8272 87.8443 35.5608L88.7465 33.7185H87.7379C87.7101 33.9875 87.0532 35.2598 86.8542 35.652C86.7108 35.9347 86.7154 36.0943 86.4564 36.2585C86.2759 35.5927 85.4061 34.2292 85.3553 33.7139H84.3467C84.3976 34.252 86.0862 37.0565 86.0862 37.4487L86.0909 37.4578Z" fill="#231F20"/>
<path d="M86.0909 37.4578V39.5235H87.0069C87.0069 36.7191 86.7663 37.8272 87.8443 35.5608L88.7465 33.7185H87.7379C87.7101 33.9875 87.0532 35.2598 86.8542 35.652C86.7108 35.9347 86.7154 36.0943 86.4564 36.2585C86.2759 35.5927 85.4061 34.2292 85.3553 33.7139H84.3467C84.3976 34.252 86.0862 37.0565 86.0862 37.4487L86.0909 37.4578Z" fill="#231F20"/>
<path fill-rule="evenodd" clip-rule="evenodd" d="M77.8467 33.9602V34.5166H79.4937V39.5281H80.4098V34.5166H82.0614V33.7231H78.1243C77.9115 33.7231 77.8513 33.7778 77.8513 33.9602H77.8467Z" fill="#231F20"/>
<path d="M77.8467 33.9602V34.5166H79.4937V39.5281H80.4098V34.5166H82.0614V33.7231H78.1243C77.9115 33.7231 77.8513 33.7778 77.8513 33.9602H77.8467Z" fill="#231F20"/>
<path fill-rule="evenodd" clip-rule="evenodd" d="M123.01 39.5281H123.926V33.9602C123.926 33.7778 123.861 33.7231 123.653 33.7231H123.01V39.5281Z" fill="#231F20"/>
<path d="M123.01 39.5281H123.926V33.9602C123.926 33.7778 123.861 33.7231 123.653 33.7231H123.01V39.5281Z" fill="#231F20"/>
<path fill-rule="evenodd" clip-rule="evenodd" d="M58.2117 15.5373C58.2117 18.3281 59.2156 20.3802 60.7424 22.1449C61.8944 23.4719 62.8243 24.2745 64.3325 25.3051C65.813 26.3174 65.7668 26.3995 66.5394 25.9845C68.3345 25.0223 69.8381 24.0282 71.189 22.5918C71.883 21.8531 72.5261 20.9 72.9656 19.9241C74.6682 16.1438 73.2062 11.6521 70.9947 8.34601C70.1203 7.0327 69.1302 5.66923 68.0522 4.46992C67.6544 4.02759 66.4145 2.62763 65.9703 2.37227C65.6141 2.57747 65.5817 2.74164 65.2902 3.00612L63.3286 5.05361C62.3108 6.20732 61.8805 6.74085 60.9968 8.00401C59.7477 9.79157 58.2117 12.7328 58.2117 15.5419M64.9155 15.6969C64.9155 12.7009 65.0219 11.1596 65.7991 8.27305C65.8639 8.35969 65.7991 8.22745 65.8824 8.4281L66.0629 9.11212C66.9234 12.2723 67.3629 18.8115 66.4885 22.0355C66.3867 22.4094 66.2525 22.8381 66.1508 23.1983L65.9611 22.8289C65.318 21.055 64.9155 17.521 64.9155 15.6969Z" fill="#80C342"/>
<path fill-rule="evenodd" clip-rule="evenodd" d="M72.0587 6.43075C72.9007 7.8079 73.9185 9.23065 74.52 10.8039C74.8901 11.7706 75.089 12.1537 75.3759 13.2755C76.204 16.5086 75.746 19.272 73.9093 22.0446C73.6826 22.3866 73.3356 22.8152 73.0441 23.1299C71.6885 24.5982 71.6099 24.5526 69.8564 25.8751C70.8882 25.8568 73.5669 24.8718 74.5014 24.4705C78.9198 22.569 80.317 18.1822 81.2561 13.9504C81.7697 11.6475 81.8437 9.46778 82.8708 7.23789C83.19 6.54931 83.5278 6.01122 83.9395 5.40928C85.0314 3.80868 87.1503 2.42697 89.1212 1.71559C89.5468 1.56055 89.8198 1.46935 90.2547 1.32342L91.1014 1.06349C91.2772 0.999653 91.2401 1.02245 91.3743 0.917571C90.9996 0.917571 90.8793 0.890212 90.6433 0.862852L87.8443 0.76709C84.4068 0.76709 81.506 1.25958 78.4941 2.29929C76.1115 3.12011 73.3818 4.71615 72.054 6.43531" fill="#0DA7E0"/>
<path fill-rule="evenodd" clip-rule="evenodd" d="M84.8511 21.356C84.8511 22.4687 84.8557 23.2074 85.4109 24.2426C86.0632 25.4601 87.044 26.2399 88.469 26.7917C91.7631 28.0685 95.6725 26.4314 96.2323 24.3429L95.8945 24.1012C94.886 25.7428 93.6461 26.4861 91.2958 26.4861C89.6811 26.4861 88.5662 25.6288 87.9092 24.7579C85.7949 21.958 86.475 16.1529 91.3883 16.1529C93.5813 16.1529 94.7425 17.1334 95.2977 18.7294C95.4273 19.1033 95.3579 19.1352 95.8853 19.1352V15.8428C94.539 15.8428 96.3479 16.4539 93.1742 15.9021C90.5879 15.4507 88.6633 15.738 86.7803 17.3568C85.8088 18.1913 84.8603 19.7098 84.8603 21.356H84.8511Z" fill="#231F20"/>
<path d="M84.8511 21.356C84.8511 22.4687 84.8557 23.2074 85.4109 24.2426C86.0632 25.4601 87.044 26.2399 88.469 26.7917C91.7631 28.0685 95.6725 26.4314 96.2323 24.3429L95.8945 24.1012C94.886 25.7428 93.6461 26.4861 91.2958 26.4861C89.6811 26.4861 88.5662 25.6288 87.9092 24.7579C85.7949 21.958 86.475 16.1529 91.3883 16.1529C93.5813 16.1529 94.7425 17.1334 95.2977 18.7294C95.4273 19.1033 95.3579 19.1352 95.8853 19.1352V15.8428C94.539 15.8428 96.3479 16.4539 93.1742 15.9021C90.5879 15.4507 88.6633 15.738 86.7803 17.3568C85.8088 18.1913 84.8603 19.7098 84.8603 21.356H84.8511Z" fill="#231F20"/>
<path fill-rule="evenodd" clip-rule="evenodd" d="M42.4214 18.4467H42.8609C42.9072 16.5999 45.3037 16.9145 47.1821 16.9145V25.182C47.1821 26.5501 46.8119 26.8647 45.771 26.8647V27.2477H50.18V26.8647C49.2593 26.8647 48.8568 26.6641 48.8568 25.41V16.9145C51.221 16.9145 52.8634 16.609 53.3538 18.4467H53.6175V15.9204C52.8449 15.9204 52.9421 16.3035 51.8548 16.3035C50.453 16.3035 44.2535 16.4312 43.3513 16.1804C42.7591 16.0162 43.0645 15.9204 42.4167 15.9204V18.4467H42.4214Z" fill="#231F20"/>
<path d="M42.4214 18.4467H42.8609C42.9072 16.5999 45.3037 16.9145 47.1821 16.9145V25.182C47.1821 26.5501 46.8119 26.8647 45.771 26.8647V27.2477H50.18V26.8647C49.2593 26.8647 48.8568 26.6641 48.8568 25.41V16.9145C51.221 16.9145 52.8634 16.609 53.3538 18.4467H53.6175V15.9204C52.8449 15.9204 52.9421 16.3035 51.8548 16.3035C50.453 16.3035 44.2535 16.4312 43.3513 16.1804C42.7591 16.0162 43.0645 15.9204 42.4167 15.9204V18.4467H42.4214Z" fill="#231F20"/>
</svg>
